#define _width 8
#define _height 8
static char _bits[] = {
 0x00,0x22,0x12,0x0a,0x06,0x0a,0x12,0x22 };
