#define _width 8
#define _height 8
static char _bits[] = {
 0x00,0x1e,0x22,0x22,0x1e,0x0a,0x12,0x22 };
